<svg id="Capa_1" data-name="Capa 1" xmlns="http://www.w3.org/2000/svg" viewBox="0 0 515.39 516.8"><title>github</title><path d="M501.5,11.15C482.73-7.63,442.45,0,416,0H96C69.56,0,31-9.29,12.22,9.48S0,69.56,0,96V416c0,26.45-6.1,68.13,12.68,86.91S69.56,512,96,512h74.67a89.16,89.16,0,0,0,11-.5c2.45-.33,4.89-1.78,7.34-4.33s3.66-6.28,3.66-11.17q0-1-.17-22.67T192.32,439l-7.66,1.33a98.06,98.06,0,0,1-18.5,1.17A142.85,142.85,0,0,1,143,439.16a51.94,51.94,0,0,1-22.33-10A42.32,42.32,0,0,1,106,408.67L102.66,401a83.37,83.37,0,0,0-10.5-17q-7.17-9.33-14.5-12.67l-2.33-1.66a24.34,24.34,0,0,1-4.34-4A18.36,18.36,0,0,1,68,361q-1-2.34,1.66-3.84t9.67-1.5l6.66,1q6.67,1.33,16.51,8A53.75,53.75,0,0,1,118.66,382q7.68,13.67,18.5,20.83T159,410a94.39,94.39,0,0,0,19-1.66,65.8,65.8,0,0,0,15-5Q196,381,209.32,369a228.76,228.76,0,0,1-34.16-6,135.78,135.78,0,0,1-31.33-13A89.76,89.76,0,0,1,117,327.65q-10.67-13.33-17.5-35t-6.83-50q0-40.34,26.34-68.67-12.34-30.33,2.33-68,9.66-3,28.67,4.5t27.83,12.84q8.83,5.33,14.17,9a240.55,240.55,0,0,1,128,0l12.67-8a178.78,178.78,0,0,1,30.67-14.67Q381,103,390.34,106q15,37.68,2.66,68,26.34,28.34,26.34,68.67,0,28.34-6.83,50.17t-17.67,35a93.25,93.25,0,0,1-27,22.17,136.11,136.11,0,0,1-31.33,13,227.34,227.34,0,0,1-34.17,6q17.32,15,17.33,47.33V496a21.51,21.51,0,0,0,1.66,9.17,9.18,9.18,0,0,0,5.34,4.83,29.29,29.29,0,0,0,6.5,1.66,72.94,72.94,0,0,0,8.17.34H416c26.44,0,67.7,6.61,86.47-12.17S512,442.43,512,416V96C512,69.56,520.28,29.92,501.5,11.15Z" transform="translate(1.11 2.3)"/></svg>