<svg id="Capa_1" data-name="Capa 1" xmlns="http://www.w3.org/2000/svg" viewBox="0 0 512 512"><defs><style>.cls-1{fill:#fff;}</style></defs><title>mail</title><path d="M405.2,0H106.8C0,0,0,10.54,0,107.31V404.69C0,512,5,512,106.8,512H405.2C512,512,512,507.54,512,404.69V107.31C512,11.54,512,0,405.2,0Z"/><path class="cls-1" d="M407.14,173.79V152.67A19.6,19.6,0,0,0,387.58,133H124.42a19.61,19.61,0,0,0-19.57,19.65V359.33A19.61,19.61,0,0,0,124.42,379H387.58a19.6,19.6,0,0,0,19.56-19.65V173.79Zm-56.26-1.46-94.78,53.6-92.73-53.6ZM144,339.67V206.47l102.27,59.11a19.51,19.51,0,0,0,19.34.09L368,207.74V339.67Z"/></svg>